# xmcd
#
# Track frame offsets:
#	150
#	15920
#	30117
#	45362
#	58825
#	73330
#	88605
#	101307
#	114897
#	129625
#	147912
#	163072
#	175087
#
# Disc length: 2543 seconds
#
# Revision: 0
# Processed by: cddbd v1.5.2PL0 Copyright (c) Steve Scherf et al.
# Submitted via: audiograbber 1.83.01
#
DISCID=9d09ed0d
DTITLE=Carry&Ron - I.O.U.
DYEAR=1992
DGENRE=Country
TTITLE0=That Girl(That Boy)
TTITLE1=I.O.U.
TTITLE2=What God Has Joined Together
TTITLE3=Friendly Fire
TTITLE4=You Can Stumble
TTITLE5=You Believe
TTITLE6=Burning Eyes
TTITLE7=Who Are You Running From
TTITLE8=Sara Don't Cry
TTITLE9=My Day In The Sun
TTITLE10=Whiskey Talking
TTITLE11=One More Break
TTITLE12=Just One Kiss Magdalena
EXTD=
EXTT0=
EXTT1=
EXTT2=
EXTT3=
EXTT4=
EXTT5=
EXTT6=
EXTT7=
EXTT8=
EXTT9=
EXTT10=
EXTT11=
EXTT12=
PLAYORDER=
